<svg data-v-423bf9ae="" xmlns="http://www.w3.org/2000/svg" viewBox="0 0 181.82739964252545 60" class="font"><!----><!----><!----><g data-v-423bf9ae="" id="371337c7-86e1-4833-9b33-9d99d9e5b5a9" fill="black" transform="matrix(5.0761418534796485,0,0,5.0761418534796485,-1.4720818580039179,-7.106597639381832)"><path d="M4.35 1.48Q4.73 1.40 5.05 1.40L5.05 1.40Q6.27 1.40 6.87 2.44Q7.48 3.49 7.48 5.15L7.48 5.15Q7.48 6.89 6.87 8.73Q6.26 10.57 5.20 11.79Q4.14 13.01 2.86 13.01L2.86 13.01Q2.25 13.01 1.68 12.73L1.68 12.73Q0.98 12.38 0.64 11.54Q0.29 10.70 0.29 9.52L0.29 9.52Q0.29 7.92 0.86 6.13Q1.43 4.33 2.37 3.02Q3.30 1.72 4.35 1.48L4.35 1.48ZM4.10 3.75Q3.37 3.77 2.78 4.50Q2.18 5.24 1.84 6.33Q1.50 7.43 1.50 8.48L1.50 8.48Q1.50 9.55 1.88 10.21Q2.25 10.88 3.01 10.88L3.01 10.88Q3.32 10.88 3.63 10.78L3.63 10.78Q4.27 10.57 4.82 9.83Q5.38 9.09 5.70 8.09Q6.02 7.08 6.02 6.15L6.02 6.15Q6.02 5.05 5.55 4.39Q5.08 3.72 4.10 3.75L4.10 3.75ZM10.21 7.98L10.61 7.64Q11.16 7.21 11.50 6.87Q11.84 6.54 12.03 6.20L12.03 6.20Q11.27 6.01 9.79 5.56L9.79 5.56L9.72 8.40Q10.14 8.05 10.21 7.98L10.21 7.98ZM12.87 9.60Q12.98 9.38 13.34 9.22Q13.71 9.06 14.04 9.06L14.04 9.06Q14.50 9.06 14.50 9.35L14.50 9.35Q14.50 9.44 14.46 9.55L14.46 9.55Q13.89 10.89 13.59 12.15L13.59 12.15Q13.52 12.43 13.19 12.67L13.19 12.67Q13.05 12.85 12.76 12.98Q12.47 13.10 12.19 13.10L12.19 13.10Q11.96 13.10 11.81 13.01Q11.66 12.91 11.65 12.70L11.65 12.70Q11.59 11.79 11.05 11.03Q10.51 10.28 9.67 10.05L9.67 10.05L9.60 12.08Q9.59 12.35 9.16 12.57Q8.74 12.80 8.34 12.80L8.34 12.80Q8.13 12.80 8.01 12.72Q7.88 12.64 7.88 12.47L7.88 12.47L7.92 10.54Q7.74 10.42 7.74 10.25L7.74 10.25Q7.74 10.05 7.95 9.87L7.95 9.87Q8.02 7.32 8.12 4.79L8.12 4.79Q8.13 4.49 8.52 4.28Q8.90 4.06 9.30 4.06L9.30 4.06Q9.59 4.06 9.72 4.20L9.72 4.20Q11.24 4.62 12.88 5.12L12.88 5.12Q13.13 5.07 13.23 5.07L13.23 5.07Q13.47 5.07 13.60 5.17Q13.73 5.28 13.73 5.49L13.73 5.49Q13.73 6.06 13.36 6.54Q12.98 7.03 12.31 7.62L12.31 7.62L12.03 7.87Q11.35 8.53 10.72 9.03L10.72 9.03Q11.87 9.35 12.57 10.30L12.57 10.30Q12.63 10.16 12.87 9.60L12.87 9.60ZM19.64 6.97Q19.70 6.69 20.07 6.50Q20.44 6.30 20.80 6.30L20.80 6.30Q21.28 6.30 21.22 6.66L21.22 6.66L21.17 6.99Q20.96 8.18 20.74 9.00Q20.52 9.81 20.08 10.58Q19.64 11.35 18.93 11.80L18.93 11.80Q18.00 12.39 17.04 12.39L17.04 12.39Q16.46 12.39 15.97 12.15Q15.47 11.91 15.13 11.41L15.13 11.41Q14.55 10.54 14.55 9.42L14.55 9.42Q14.55 7.91 15.62 5.92L15.62 5.92Q15.99 5.24 16.39 4.83Q16.79 4.42 17.39 4.34L17.39 4.34Q17.44 4.33 17.54 4.33L17.54 4.33Q17.77 4.33 17.93 4.41L17.93 4.41Q18.35 3.49 18.58 3.02L18.58 3.02Q18.68 2.81 19.05 2.66Q19.42 2.51 19.74 2.51L19.74 2.51Q20.16 2.51 20.16 2.77L20.16 2.77Q20.16 2.83 20.12 2.94L20.12 2.94Q19.15 5.29 18.55 6.59L18.55 6.59Q18.45 6.82 18.09 6.97Q17.74 7.13 17.40 7.13L17.40 7.13Q17.18 7.13 17.04 7.06Q16.90 6.99 16.90 6.83L16.90 6.83Q16.90 6.73 16.95 6.62L16.95 6.62L17.16 6.15Q17.09 6.13 17.04 6.08L17.04 6.08L16.76 6.73Q16.37 7.59 16.24 8.44L16.24 8.44Q16.20 8.71 16.20 8.99L16.20 8.99Q16.20 9.59 16.38 10.12Q16.56 10.65 16.95 10.98L16.95 10.98Q17.28 11.26 17.58 11.26L17.58 11.26Q18.82 11.26 19.64 6.97L19.64 6.97ZM24.56 5.08Q24.56 4.79 24.92 4.58Q25.28 4.37 25.68 4.37L25.68 4.37Q25.91 4.37 26.05 4.46Q26.19 4.55 26.18 4.75L26.18 4.75Q26.15 5.95 26.12 8.39L26.12 8.39L26.05 12.04Q26.04 12.35 25.67 12.57Q25.30 12.80 24.91 12.80L24.91 12.80Q24.65 12.80 24.51 12.69Q24.36 12.59 24.36 12.38L24.36 12.38L24.42 10.08Q24.36 10.09 24.25 10.09L24.25 10.09L23.97 10.08Q23.87 10.07 23.67 10.07L23.67 10.07Q23.58 10.07 23.44 10.09L23.44 10.09Q23.37 11.49 23.24 12.47L23.24 12.47Q23.21 12.77 22.81 12.99Q22.41 13.22 22.02 13.22L22.02 13.22Q21.78 13.22 21.65 13.12Q21.52 13.02 21.53 12.82L21.53 12.82Q21.74 10.89 21.80 9.30L21.80 9.30L21.81 8.88Q21.85 7.66 21.85 7.27L21.85 7.27Q21.85 6.01 21.70 5.71L21.70 5.71Q21.48 5.73 21.36 5.63Q21.24 5.54 21.24 5.40L21.24 5.40Q21.24 5.26 21.35 5.11Q21.46 4.96 21.63 4.86L21.63 4.86Q22.16 4.56 22.54 4.56L22.54 4.56Q22.85 4.56 23.09 4.76L23.09 4.76Q23.45 5.07 23.45 6.05L23.45 6.05L23.44 6.75Q23.48 7.46 23.48 8.19L23.48 8.19L23.46 9.02Q23.55 8.99 23.73 9.02Q23.91 9.04 24.01 9.04L24.01 9.04Q24.11 9.04 24.23 9.02Q24.36 9.00 24.46 8.99L24.46 8.99L24.56 5.08ZM27.54 5.10Q27.55 4.82 27.94 4.60Q28.34 4.38 28.73 4.38L28.73 4.38Q28.95 4.38 29.09 4.47Q29.23 4.56 29.22 4.76L29.22 4.76L28.81 12.36Q28.80 12.66 28.41 12.87Q28.01 13.09 27.62 13.09L27.62 13.09Q27.10 13.09 27.12 12.68L27.12 12.68L27.54 5.10ZM27.51 3.25Q27.48 3.44 27.62 3.54Q27.75 3.64 27.97 3.64L27.97 3.64Q28.35 3.64 28.74 3.43Q29.13 3.22 29.18 2.93L29.18 2.93Q29.29 2.23 29.33 1.88L29.33 1.88Q29.39 1.53 28.90 1.53L28.90 1.53Q28.52 1.53 28.11 1.74Q27.71 1.95 27.68 2.21L27.68 2.21L27.51 3.25ZM31.96 10.21Q33.43 9.07 34.27 7.80L34.27 7.80Q33.15 7.46 32.02 6.44L32.02 6.44Q31.99 7.71 31.96 10.21L31.96 10.21ZM36.01 7.03Q36.11 7.10 36.11 7.21L36.11 7.21Q36.11 7.31 36.05 7.41L36.05 7.41Q35.31 8.83 34.09 9.94Q32.87 11.05 31.14 12.15L31.14 12.15Q30.97 12.25 30.76 12.33Q30.55 12.40 30.35 12.40L30.35 12.40Q30.14 12.40 29.99 12.29L29.99 12.29Q29.82 12.17 29.82 11.98L29.82 11.98Q29.82 11.75 30.09 11.56L30.09 11.56Q30.11 11.55 30.14 11.52Q30.17 11.49 30.23 11.47L30.23 11.47L30.28 7.99Q30.31 6.86 30.34 4.54L30.34 4.54Q30.32 4.51 30.32 4.44L30.32 4.44Q30.32 4.41 30.35 4.30L30.35 4.30L30.35 4.14Q30.37 3.88 30.72 3.69Q31.07 3.50 31.46 3.50L31.46 3.50Q31.72 3.50 31.88 3.60Q32.05 3.70 32.05 3.91L32.05 3.91L32.05 4.05Q33.74 6.38 35.74 6.90L35.74 6.90Q35.95 6.97 36.01 7.03L36.01 7.03Z"></path></g><!----><!----></svg>