<svg xmlns="http://www.w3.org/2000/svg" xml:space="preserve" viewBox="0 0 1000 160.8" class="MainLogo_logoText1__Xmeu_" fill="white">
  <path d="m968 5.9-12.5 57.2c-1 4.4-2 9.6-3.2 15.6-1.1 6-2.2 11.8-3.2 17.6-1 5.7-1.7 9-1.9 10l-.8.2L902.9 5.9h-35.8l-31.4 151.5h32.4l9.7-45.2c4-18.6 7.6-37.1 10.8-55.4h.8l43.5 100.6h35.8l31.7-151.5zM801.6 11c-10.4-5-22.4-7.5-36.2-7.5q-19.95 0-36.6 7.5c-11 4.9-20.1 11.5-27.5 19.8-7.2 8.2-12.8 17.6-16.8 28.4-3.9 10.6-5.9 21.7-5.9 33.3 0 10.8 1.7 20.5 5.1 29.2 3.4 8.5 8.3 15.5 14.5 21.1s13.5 9.8 22 12.7 17.8 4.3 28.2 4.3c10.7 0 20.7-1.6 30.2-4.9 9.4-3.2 17.5-7.7 24.4-13.3 6.8-5.7 12.7-12.3 17.7-19.7 5-7.5 8.6-15.6 11.1-24.4s3.7-17.7 3.7-27c0-14.3-3-26.6-9.1-36.8C820.2 23.6 812 16 801.6 11m-5.2 81.8c-2.2 6.1-5.3 11.7-9.4 16.7-4 4.9-9.1 8.9-15.4 11.9s-13.1 4.5-20.6 4.5c-11.4 0-20.4-3.2-27.1-9.7-6.5-6.5-9.7-15.3-9.7-26.5q0-9.6 3.3-18.9c2.3-6.1 5.4-11.7 9.4-16.7 4-5.1 9.1-9.1 15.3-12.2 6.3-3.1 13.1-4.6 20.6-4.6 11.4 0 20.4 3.3 27.1 9.9q9.9 9.9 9.9 27c0 6.3-1.1 12.5-3.4 18.6M691.7 5.9H563.5l-6.6 33.4h47.4l-25.1 118.1h33.5l25.2-118.1h47.3zM545.9 55.5c-4.9-4.1-10.5-7.1-16.8-9.2s-13.2-3.2-20.6-3.2c-12.6 0-24 3-34 9-10 5.9-17.7 13.8-23 23.7-5.4 9.9-8.1 20.8-8.1 32.8 0 7 1 13.3 2.9 19 1.9 5.6 4.5 10.4 7.7 14.2 3.3 3.9 7.2 7.1 11.8 9.8q6.75 3.9 14.4 5.7c5.1 1.2 10.5 1.8 16.1 1.8 9.5 0 18.3-1.7 26.5-5.2 8.2-3.4 15.1-8.1 20.7-14s10.1-12.8 13.2-20.8c3.2-8 4.9-16.5 4.9-25.5 0-8.4-1.4-15.8-4.2-22.4-2.8-6.4-6.6-11.7-11.5-15.7m-17.6 50.6c-.7 3-1.9 6-3.5 8.9-1.7 2.8-3.6 5.3-6 7.6-2.3 2.2-5.1 3.9-8.6 5.3-3.4 1.3-7.2 2-11.3 2-7.3 0-13-2.1-17.3-6.4q-6.3-6.45-6.3-18c0-3.9.6-7.7 1.9-11.4q1.8-5.7 5.4-10.5t9.6-7.8c4.1-2 8.6-3.1 13.6-3.1 7.2 0 12.9 2.2 17.1 6.5 4.3 4.3 6.4 10.3 6.4 17.9.2 3-.2 6-1 9M394 43.2c-13.8 0-24.8 4.7-32.6 14.2L373.7-1h-31.6l-32.9 158.4H341l3.6-17.3c2.1 6.3 6 11 11.7 14.3 5.6 3.2 12.8 4.9 21.4 4.9 11.9 0 22.5-3.1 31.8-9.4 9.2-6.3 16.3-14.6 21.1-25q7.2-15.45 7.2-34.5c0-14.8-3.9-26.4-11.8-34.8-7.8-8.2-18.6-12.4-32-12.4m9.7 64.8c-1.3 4.1-3.2 7.9-5.8 11.3-2.5 3.3-5.7 6-9.7 8s-8.5 3-13.4 3c-7.1 0-12.7-2-16.8-5.9s-6.2-9.7-6.2-17.4c0-4.5.7-8.8 2-12.9s3.2-7.9 5.7-11.3 5.7-6 9.7-8 8.4-3.1 13.3-3.1c7.2 0 12.9 2 17 5.9s6.2 9.7 6.2 17.4c-.1 4.6-.7 8.9-2 13M323.9 45.3h-11.3c-7 0-13.2 1.9-18.7 5.8-5.4 3.9-9.8 8.9-13.2 15.2l4.4-21h-29.7l-23.2 112.1h31.4l13.3-63c2.3-10.7 8.7-16 19.1-16h21zM205.2 45.3l-11.9 57.4c-1.9 8.8-5.2 15.6-10 20.5q-7.2 7.2-18.3 7.2c-3.9 0-7.2-.7-9.7-2.1-2.5-1.5-4.1-3.3-5-5.6-.8-2.3-1.3-4.9-1.5-7.7-.1-2.9.2-5.7.9-8.5l12.7-61.1H131l-14 68.1c-.8 4.6-1.2 9-1.3 13.4s.6 8.5 2.1 12.4 3.5 7.4 6.1 10.3c2.5 3 6.1 5.3 10.6 7.1 4.6 1.7 9.9 2.5 15.9 2.5 13.7 0 25.6-6.4 35.6-19.2l-3.5 17.3H213l23.3-112.1c.1.1-31.1.1-31.1.1M135.2 5.9H6.9L.4 39.3h47.4L22.6 157.4h33.5L81.4 39.3h47.3z"/>
</svg>