<svg width="302" height="106" viewBox="0 0 302 106" fill="none" xmlns="http://www.w3.org/2000/svg">
<path d="M68.2783 29.4122L68.2783 75.6313L0 105.043L4.66334e-06 0L68.2783 29.4122Z" fill="white"/>
<path d="M51.2087 9.45392V20.1552L34.1391 12.7365V2.93862e-06L51.2087 9.45392Z" fill="white"/>
<path d="M68.2783 18.9078V27.5739L53.3424 21.0826V10.6357L68.2783 18.9078Z" fill="white"/>
<path d="M99.7913 43.5198V33.5059H145.346V43.5198H129.557V70.2087H115.59V43.5198H99.7913Z" fill="white"/>
<path d="M165.216 70.2176L146.724 33.5059H162.567L174.862 59.1158L186.42 33.5059H200.929L183.762 70.2176H165.216Z" fill="white"/>
<path d="M228.134 32.8105C251.747 32.8105 254.797 44.1084 254.797 51.0192V52.4994C254.797 59.3567 251.792 70.9043 228.134 70.9043H225.921C202.21 70.9043 199.205 59.3567 199.205 52.4994V51.0192C199.205 44.1084 202.21 32.8105 225.921 32.8105H228.134ZM240.332 51.358C240.332 47.4613 237.825 42.6728 227.005 42.6728C216.185 42.6728 213.678 47.4613 213.678 51.358V51.9466C213.678 55.7988 216.185 60.9796 227.005 60.9796C237.825 60.9796 240.332 55.9949 240.332 52.0447V51.358Z" fill="white"/>
<path d="M298.974 33.506V42.4855H272.267V47.0778H298.44V56.0127H272.267V61.0419H299.374V70.2176H258.496V33.506H298.983H298.974ZM278.019 31.2856H265.919V23.6348H278.019V31.2856ZM292.43 31.2856H280.375V23.6348H292.43V31.2856Z" fill="white"/>
</svg>
