<svg width="36" height="36" viewBox="0 0 36 36" fill="none" xmlns="http://www.w3.org/2000/svg">
<g clip-path="url(#clip0_864_2105)">
<path d="M0 17.28C0 9.13396 0 5.06117 2.53059 2.53059C5.06117 0 9.13396 0 17.28 0H18.72C26.866 0 30.9388 0 33.4694 2.53059C36 5.06117 36 9.13396 36 17.28V18.72C36 26.866 36 30.9388 33.4694 33.4694C30.9388 36 26.866 36 18.72 36H17.28C9.13396 36 5.06117 36 2.53059 33.4694C0 30.9388 0 26.866 0 18.72V17.28Z" fill="#09090C"/>
<path d="M25.1016 13.5352L25.1016 22.4297L12.1641 28.0898L12.1641 7.875L25.1016 13.5352Z" fill="white"/>
<path d="M21.8672 9.69434V11.7537L18.6328 10.3261V7.875L21.8672 9.69434Z" fill="white"/>
<path d="M25.1016 11.5137V13.1814L22.2715 11.9322V9.92175L25.1016 11.5137Z" fill="white"/>
</g>
<defs>
<clipPath id="clip0_864_2105">
<rect width="36" height="36" fill="white"/>
</clipPath>
</defs>
</svg>
