<svg width="18" height="18" viewBox="0 0 18 18" fill="none" xmlns="http://www.w3.org/2000/svg">
<path d="M16.018 6.78033L16.0072 6.7694C16.0061 6.76882 16.0052 6.76796 16.0046 6.76692L9.00085 0L1.99554 6.76642L1.99348 6.7694L1.98165 6.77984C0.910521 7.82037 0.230175 9.17693 0.0487601 10.6339C-0.132655 12.0908 0.195273 13.5645 0.980416 14.8208C1.76556 16.077 2.96286 17.0437 4.38199 17.5671C5.80112 18.0905 7.36063 18.1406 8.81263 17.7094C8.93503 17.6737 9.06565 17.6737 9.18804 17.7094C10.2726 18.0316 11.4233 18.0869 12.5356 17.8702C13.6479 17.6536 14.6865 17.1719 15.5571 16.469C16.4277 15.766 17.1027 14.8641 17.5208 13.8451C17.9389 12.8261 18.0868 11.7223 17.9511 10.634C17.7695 9.17718 17.0891 7.82076 16.018 6.78033ZM4.48612 11.2426C4.45203 11.2755 4.42499 11.3147 4.40655 11.3577C4.3881 11.4008 4.37862 11.4469 4.37864 11.4935C4.39115 12.6877 4.74052 13.856 5.38917 14.8727C5.404 14.8957 5.41089 14.9227 5.40885 14.9497C5.40682 14.9768 5.39596 15.0025 5.37785 15.0232C5.35973 15.0439 5.33529 15.0585 5.30803 15.0649C5.28078 15.0714 5.25211 15.0693 5.22615 15.059C4.60883 14.808 4.06481 14.4144 3.64198 13.9126C3.21914 13.4108 2.93043 12.8164 2.80126 12.1815C2.67209 11.5466 2.70641 10.8908 2.90121 10.2718C3.096 9.65273 3.4453 9.08942 3.91837 8.63141L8.99982 3.72253L14.0818 8.63141C14.8468 9.372 15.2761 10.3757 15.2754 11.4219C15.2748 12.4681 14.8441 13.4713 14.0782 14.211C13.7046 14.5728 13.2616 14.8608 12.774 15.059C12.7481 15.0688 12.7196 15.0705 12.6926 15.0639C12.6656 15.0573 12.6415 15.0427 12.6235 15.0222C12.6055 15.0017 12.5945 14.9763 12.5922 14.9495C12.5899 14.9227 12.5963 14.8958 12.6105 14.8727C13.2593 13.8561 13.6088 12.6877 13.6215 11.4935C13.6215 11.4469 13.6119 11.4007 13.5934 11.3576C13.5749 11.3146 13.5477 11.2755 13.5135 11.2426L11.1099 8.77946C11.0858 8.76102 11.0559 8.75115 11.0251 8.75151C10.9944 8.75187 10.9647 8.76245 10.9411 8.78146C10.9175 8.80047 10.9014 8.82675 10.8955 8.85588C10.8897 8.88502 10.8943 8.91522 10.9088 8.94142C11.8422 10.5734 11.0394 12.9178 9.70025 14.211L9.69357 14.2179C9.50885 14.3947 9.25934 14.4939 8.99931 14.4939C8.73928 14.4939 8.48976 14.3947 8.30505 14.2179L8.29888 14.211C6.95973 12.9178 6.15748 10.5734 7.09087 8.94142C7.10648 8.91528 7.11205 8.88467 7.10659 8.85496C7.10113 8.82526 7.08501 8.79836 7.06104 8.77901C7.03708 8.75966 7.00682 8.7491 6.97559 8.74918C6.94436 8.74926 6.91416 8.75999 6.89031 8.77946L4.48612 11.2426Z" fill="#F53838"/>
</svg>
