<svg width="50" height="50" viewBox="0 0 50 50" fill="none" xmlns="http://www.w3.org/2000/svg">
<path d="M44.4944 18.8343L44.4644 18.8039C44.4614 18.8023 44.459 18.7999 44.4573 18.797L25.0024 0L5.54315 18.7956L5.53744 18.8039L5.50458 18.8329C2.52923 21.7232 0.639375 25.4915 0.135445 29.5385C-0.368486 33.5856 0.542425 37.6793 2.72338 41.1688C4.90433 44.6584 8.23016 47.3435 12.1722 48.7974C16.1142 50.2513 20.4462 50.3905 24.4795 49.1929C24.8195 49.0936 25.1824 49.0936 25.5223 49.1929C28.535 50.0878 31.7314 50.2413 34.821 49.6395C37.9107 49.0378 40.7958 47.6998 43.2142 45.7471C45.6326 43.7945 47.5076 41.2891 48.669 38.4585C49.8303 35.6279 50.2412 32.5619 49.8642 29.5389C49.3598 25.4922 47.4697 21.7243 44.4944 18.8343ZM12.4614 31.2294C12.3667 31.321 12.2916 31.4296 12.2404 31.5492C12.1892 31.6688 12.1628 31.7969 12.1629 31.9263C12.1976 35.2436 13.1681 38.489 14.9699 41.3131C15.0111 41.377 15.0302 41.4519 15.0246 41.527C15.0189 41.6021 14.9888 41.6736 14.9385 41.7311C14.8881 41.7886 14.8203 41.8292 14.7445 41.8471C14.6688 41.865 14.5892 41.8592 14.5171 41.8306C12.8023 41.1335 11.2912 40.0399 10.1166 38.6461C8.94204 37.2523 8.14008 35.601 7.78127 33.8375C7.42246 32.074 7.5178 30.2523 8.0589 28.5327C8.60001 26.8131 9.57028 25.2484 10.8844 23.9761L24.9995 10.3404L39.1161 23.9761C41.2411 26.0333 42.4336 28.8213 42.4318 31.7275C42.4299 34.6337 41.2337 37.4203 39.1061 39.4749C38.0683 40.4799 36.8378 41.28 35.4834 41.8306C35.4113 41.8577 35.3323 41.8625 35.2573 41.8442C35.1824 41.8258 35.1152 41.7854 35.0652 41.7284C35.0152 41.6714 34.9848 41.6008 34.9783 41.5263C34.9719 41.4519 34.9896 41.3773 35.0291 41.3131C36.8313 38.4891 37.8023 35.2437 37.8376 31.9263C37.8375 31.7968 37.811 31.6686 37.7595 31.549C37.708 31.4294 37.6326 31.3208 37.5376 31.2294L30.8607 24.3874C30.7938 24.3362 30.7107 24.3087 30.6254 24.3097C30.54 24.3108 30.4576 24.3401 30.3921 24.3929C30.3265 24.4457 30.2818 24.5187 30.2654 24.5997C30.249 24.6806 30.262 24.7645 30.3021 24.8373C32.8949 29.3706 30.665 35.8828 26.9451 39.4749L26.9266 39.4943C26.4135 39.9854 25.7204 40.2609 24.9981 40.2609C24.2758 40.2609 23.5827 39.9854 23.0696 39.4943L23.0524 39.4749C19.3326 35.8828 17.1041 29.3706 19.6969 24.8373C19.7402 24.7647 19.7557 24.6796 19.7405 24.5971C19.7254 24.5146 19.6806 24.4399 19.614 24.3861C19.5475 24.3324 19.4634 24.3031 19.3766 24.3033C19.2899 24.3035 19.206 24.3333 19.1397 24.3874L12.4614 31.2294Z" fill="#F53838"/>
</svg>
