<svg width="70" height="63" viewBox="0 0 70 63" fill="none" xmlns="http://www.w3.org/2000/svg">
<path d="M62.2922 23.7312L62.2502 23.6929C62.246 23.6909 62.2425 23.6879 62.2402 23.6842L35.0033 0L7.76042 23.6825L7.75242 23.6929L7.70642 23.7294C3.54092 27.3713 0.895125 32.1192 0.189623 37.2186C-0.51588 42.3179 0.759395 47.4759 3.81273 51.8727C6.86606 56.2696 11.5222 59.6528 17.0411 61.4847C22.5599 63.3166 28.6247 63.492 34.2713 61.9831C34.7473 61.8579 35.2553 61.8579 35.7313 61.9831C39.949 63.1106 44.4239 63.304 48.7494 62.5458C53.075 61.7876 57.1141 60.1017 60.4998 57.6414C63.8856 55.1811 66.5106 52.0243 68.1365 48.4577C69.7624 44.8912 70.3376 41.028 69.8099 37.2191C69.1037 32.1201 66.4576 27.3727 62.2922 23.7312ZM17.446 39.3491C17.3134 39.4644 17.2083 39.6013 17.1366 39.752C17.0649 39.9027 17.028 40.0641 17.028 40.2272C17.0767 44.407 18.4354 48.4961 20.9579 52.0545C21.0155 52.1351 21.0423 52.2294 21.0344 52.3241C21.0265 52.4187 20.9843 52.5087 20.9139 52.5812C20.8434 52.6536 20.7484 52.7048 20.6423 52.7273C20.5363 52.7499 20.4249 52.7426 20.3239 52.7066C17.9232 51.8282 15.8076 50.4503 14.1632 48.6941C12.5189 46.9379 11.3961 44.8572 10.8938 42.6352C10.3914 40.4132 10.5249 38.1179 11.2825 35.9512C12.04 33.7846 13.3984 31.813 15.2381 30.2099L34.9993 13.0288L54.7625 30.2099C57.7375 32.802 59.4071 36.3149 59.4045 39.9767C59.4018 43.6385 57.7272 47.1496 54.7485 49.7384C53.2956 51.0047 51.5729 52.0129 49.6767 52.7066C49.5758 52.7408 49.4652 52.7467 49.3603 52.7236C49.2553 52.7005 49.1613 52.6496 49.0912 52.5778C49.0212 52.506 48.9787 52.417 48.9697 52.3232C48.9606 52.2294 48.9855 52.1355 49.0407 52.0545C51.5639 48.4962 52.9232 44.4071 52.9726 40.2272C52.9725 40.064 52.9353 39.9024 52.8633 39.7517C52.7912 39.6011 52.6856 39.4642 52.5526 39.3491L43.205 30.7281C43.1113 30.6636 42.995 30.629 42.8755 30.6303C42.756 30.6316 42.6407 30.6686 42.5489 30.7351C42.4571 30.8016 42.3945 30.8936 42.3716 30.9956C42.3486 31.0976 42.3668 31.2033 42.423 31.295C46.0529 37.0069 42.931 45.2123 37.7232 49.7384L37.6972 49.7628C36.9789 50.3816 36.0085 50.7288 34.9973 50.7288C33.9861 50.7288 33.0157 50.3816 32.2974 49.7628L32.2734 49.7384C27.0656 45.2123 23.9458 37.0069 27.5756 31.295C27.6363 31.2035 27.658 31.0963 27.6367 30.9924C27.6155 30.8884 27.5528 30.7943 27.4596 30.7265C27.3664 30.6588 27.2488 30.6219 27.1273 30.6221C27.0058 30.6224 26.8884 30.66 26.7956 30.7281L17.446 39.3491Z" fill="#F53838"/>
</svg>
